<!-- Created with Inkscape (http://www.inkscape.org/) -->
<svg version="1.1" viewBox="0 0 80 80" xmlns="http://www.w3.org/2000/svg">
 <g transform="translate(-32.842 -75.551)">
  <text transform="matrix(.24296 0 0 .24296 5.9741 9.4864)" fill="#000000" style="shape-inside:url(#rect113);white-space:pre" xml:space="preserve"/>
  <g transform="matrix(.91827 0 0 .91827 5.9741 9.4864)" stroke-width=".63384" aria-label="ASI.">
   <path d="m59.826 123.53h-9.9368l-1.5681 4.4897h-6.3879l9.128-24.644h7.5764l9.128 24.644h-6.3879zm-8.3522-4.5722h6.7511l-3.3673-9.8047z"/>
   <path d="m88.184 104.15v5.216q-2.0303-0.90785-3.9615-1.37-1.9312-0.46218-3.6479-0.46218-2.2779 0-3.3673 0.62724-1.0894 0.62724-1.0894 1.9477 0 0.99037 0.72628 1.5516 0.74278 0.54471 2.674 0.94086l2.707 0.54471q4.1101 0.82531 5.8432 2.509 1.7332 1.6836 1.7332 4.7868 0 4.077-2.4264 6.0743-2.4099 1.9808-7.3783 1.9808-2.3439 0-4.7043-0.44567-2.3604-0.44567-4.7208-1.3205v-5.3645q2.3604 1.2545 4.5557 1.8982 2.2118 0.62724 4.2586 0.62724 2.0798 0 3.1857-0.69327 1.1059-0.69326 1.1059-1.9808 0-1.1554-0.75929-1.7827-0.74278-0.62724-2.9876-1.1224l-2.4594-0.5447q-3.6974-0.7923-5.414-2.5255-1.7001-1.7332-1.7001-4.6713 0-3.6809 2.3769-5.6616t6.8336-1.9808q2.0303 0 4.1761 0.31362 2.1458 0.29711 4.4402 0.90784z"/>
   <path d="m95.381 103.37h6.3549v24.644h-6.3549z"/>
  </g>
  <path d="m73.342 78.863c-20.514 0-37.21 16.695-37.21 37.21-1e-6 20.514 16.696 37.21 37.21 37.21 15.142 0 28.202-9.0976 34.004-22.112h-6.8104c-5.2987 9.5463-15.473 15.991-27.194 15.991-17.207 0-31.09-13.882-31.09-31.089 0-17.207 13.884-31.09 31.09-31.09 13.11 1e-6 24.289 8.0601 28.87 19.508h6.4911c-4.8816-14.862-18.889-25.627-35.361-25.627zm30.512 43.21c-0.33424 1.7154-0.80685 3.3804-1.4092 4.9816h6.4518c0.50033-1.6161 0.8885-3.2805 1.1658-4.9816h-6.2084z" color="#000000" stroke-width=".91827"/>
 </g>
</svg>
