<!-- Created with Inkscape (http://www.inkscape.org/) -->
<svg version="1.1" viewBox="0 0 90.921 10.414" xmlns="http://www.w3.org/2000/svg">
 <g transform="translate(-5.7601 -52.498)">
  <text transform="matrix(.24296 0 0 .24296 5.9741 9.4864)" fill="#000000" style="shape-inside:url(#rect113);white-space:pre" xml:space="preserve"/>
  <g stroke-width="0" aria-label="&lt;ASIEditor /&gt;">
   <path fill="currentColor" d="m13.406 55.975-5.7496 1.9802 5.7496 1.9682v1.4911l-7.6463-2.7615v-1.4076l7.6463-2.7615z"/>
   <path fill="currentColor" d="m21.226 60.156h-3.5905l-0.56661 1.6223h-2.3082l3.2983-8.9048h2.7376l3.2983 8.9048h-2.3082zm-3.018-1.6521h2.4394l-1.2167-3.5428z"/>
   <path fill="currentColor" d="m31.472 53.154v1.8847q-0.73362-0.32804-1.4314-0.49504-0.69783-0.167-1.3181-0.167-0.82308 0-1.2167 0.22665-0.39365 0.22664-0.39365 0.70379 0 0.35786 0.26243 0.56065 0.2684 0.19682 0.96622 0.33997l0.97816 0.19682q1.4851 0.29822 2.1114 0.90658 0.62626 0.60836 0.62626 1.7297 0 1.4732-0.87676 2.1949-0.8708 0.71572-2.6661 0.71572-0.84694 0-1.6998-0.16104-0.8529-0.16104-1.7058-0.47715v-1.9384q0.8529 0.45329 1.6462 0.6859 0.79922 0.22664 1.5388 0.22664 0.75151 0 1.1511-0.2505 0.39961-0.2505 0.39961-0.71572 0-0.4175-0.27436-0.64415-0.2684-0.22664-1.0795-0.40558l-0.88869-0.19682q-1.336-0.28629-1.9563-0.91255-0.61433-0.62626-0.61433-1.6879 0-1.3301 0.85887-2.0458 0.85887-0.71572 2.4692-0.71572 0.73362 0 1.509 0.11332 0.77537 0.10736 1.6044 0.32804z"/>
   <path fill="currentColor" d="m34.073 52.874h2.2963v8.9048h-2.2963z"/>
   <path fill="currentColor" d="m38.618 52.874h6.197v1.7356h-3.9007v1.6581h3.6681v1.7356h-3.6681v2.0398h4.0319v1.7356h-6.3282z"/>
   <path fill="currentColor" d="m51.411 56.076v-3.5786h2.1472v9.2805h-2.1472v-0.96622q-0.44136 0.59047-0.97219 0.86483-0.53083 0.27436-1.2287 0.27436-1.2346 0-2.0279-0.97816-0.79326-0.98412-0.79326-2.5289 0-1.5448 0.79326-2.5229 0.79326-0.98412 2.0279-0.98412 0.69187 0 1.2227 0.28032 0.53679 0.27436 0.97816 0.85887zm-1.4076 4.3242q0.6859 0 1.0438-0.50101 0.36383-0.50101 0.36383-1.4553 0-0.9543-0.36383-1.4553-0.35786-0.50101-1.0438-0.50101-0.67994 0-1.0438 0.50101-0.35786 0.50101-0.35786 1.4553 0 0.9543 0.35786 1.4553 0.36383 0.50101 1.0438 0.50101z"/>
   <path fill="currentColor" d="m55.61 55.098h2.1352v6.6801h-2.1352zm0-2.6005h2.1352v1.7416h-2.1352z"/>
   <path fill="currentColor" d="m62.129 53.202v1.8967h2.2008v1.5269h-2.2008v2.8331q0 0.46522 0.1849 0.63222 0.1849 0.16104 0.73362 0.16104h1.0974v1.5269h-1.8311q-1.2644 0-1.7953-0.52486-0.52486-0.53083-0.52486-1.7953v-2.8331h-1.0617v-1.5269h1.0617v-1.8967z"/>
   <path fill="currentColor" d="m68.815 56.464q-0.70976 0-1.0855 0.51294-0.36979 0.50697-0.36979 1.4672 0 0.96026 0.36979 1.4732 0.37576 0.50697 1.0855 0.50697 0.69783 0 1.0676-0.50697 0.36979-0.51293 0.36979-1.4732 0-0.96026-0.36979-1.4672-0.36979-0.51294-1.0676-0.51294zm0-1.5269q1.7237 0 2.6899 0.93044 0.97219 0.93044 0.97219 2.5766 0 1.6462-0.97219 2.5766-0.96622 0.93044-2.6899 0.93044-1.7297 0-2.7078-0.93044-0.97219-0.93044-0.97219-2.5766 0-1.6462 0.97219-2.5766 0.97815-0.93044 2.7078-0.93044z"/>
   <path fill="currentColor" d="m78.99 56.917q-0.28032-0.13122-0.56065-0.19086-0.27436-0.06561-0.55469-0.06561-0.82308 0-1.2704 0.53083-0.44136 0.52486-0.44136 1.509v3.0776h-2.1352v-6.6801h2.1352v1.0974q0.41154-0.65608 0.94237-0.9543 0.53679-0.30418 1.2823-0.30418 0.10736 0 0.23261 0.01193 0.12525 6e-3 0.36383 0.03579z"/>
   <path fill="currentColor" d="m86.416 52.874h1.3241l-3.1432 10.038h-1.3181z"/>
   <path fill="currentColor" d="m89.034 55.975v-1.4911l7.6463 2.7615v1.4076l-7.6463 2.7615v-1.4911l5.7556-1.9682z"/>
  </g>
 </g>
</svg>
